<svg xmlns="http://www.w3.org/2000/svg" xmlns:xlink="http://www.w3.org/1999/xlink" width="500" zoomAndPan="magnify" viewBox="0 0 375 374.999991" height="500" preserveAspectRatio="xMidYMid meet" version="1.0"><defs><g/></defs><g fill="#000000" fill-opacity="1"><g transform="translate(131.634363, 240.011818)"><g><path d="M 5.78125 0 L 5.78125 -2.5 C 10.40625 -2.5 13.773438 -3.109375 15.890625 -4.328125 C 18.015625 -5.554688 19.078125 -8.414062 19.078125 -12.90625 L 19.078125 -127.578125 C 19.078125 -132.078125 18.015625 -134.9375 15.890625 -136.15625 C 13.773438 -137.375 10.40625 -137.984375 5.78125 -137.984375 L 5.78125 -140.484375 L 68.609375 -140.484375 C 73.742188 -140.484375 79.523438 -140.066406 85.953125 -139.234375 C 92.378906 -138.398438 98.832031 -136.726562 105.3125 -134.21875 C 111.800781 -131.71875 117.804688 -127.960938 123.328125 -122.953125 C 128.859375 -117.941406 133.289062 -111.320312 136.625 -103.09375 C 139.96875 -94.875 141.640625 -84.535156 141.640625 -72.078125 C 141.640625 -62.703125 140.320312 -53.675781 137.6875 -45 C 135.0625 -36.320312 130.726562 -28.609375 124.6875 -21.859375 C 118.644531 -15.117188 110.613281 -9.789062 100.59375 -5.875 C 90.570312 -1.957031 78.238281 0 63.59375 0 Z M 61.859375 -2.5 C 73.941406 -2.5 83.835938 -4.554688 91.546875 -8.671875 C 99.253906 -12.785156 105.226562 -18.273438 109.46875 -25.140625 C 113.707031 -32.015625 116.628906 -39.53125 118.234375 -47.6875 C 119.835938 -55.851562 120.640625 -63.984375 120.640625 -72.078125 C 120.640625 -86.722656 118.226562 -98.925781 113.40625 -108.6875 C 108.59375 -118.457031 102.007812 -125.78125 93.65625 -130.65625 C 85.3125 -135.539062 75.804688 -137.984375 65.140625 -137.984375 C 56.148438 -137.984375 49.757812 -137.375 45.96875 -136.15625 C 42.175781 -134.9375 40.28125 -132.140625 40.28125 -127.765625 L 40.28125 -12.90625 C 40.28125 -8.539062 41.914062 -5.710938 45.1875 -4.421875 C 48.46875 -3.140625 54.023438 -2.5 61.859375 -2.5 Z M 61.859375 -2.5 "/></g></g></g><path stroke-linecap="butt" transform="matrix(1.220487, 0, 0, 1.220487, 79.530863, 48.97473)" fill="none" stroke-linejoin="miter" d="M 36.861249 154.998569 L 36.861249 106.285936 L 38.960821 106.285936 C 38.960821 117.119856 40.5323 125.972625 43.678457 132.844243 C 46.821414 139.71266 51.08777 144.772757 56.480726 148.024533 C 61.896086 151.273109 67.906751 152.898997 74.512721 152.898997 C 78.635052 152.898997 82.40212 152.278087 85.810724 151.036267 C 89.219328 149.794446 91.93981 147.733281 93.975371 144.852771 C 96.036536 141.97226 97.067118 138.153984 97.067118 133.397941 C 97.067118 128.853135 95.626863 124.692398 92.746353 120.912528 C 89.894647 117.107054 86.165987 113.47441 81.569972 110.011396 C 76.970757 106.551583 72.121898 103.117375 67.023394 99.708771 C 61.950495 96.300167 57.114438 92.757139 52.515223 89.086088 C 47.919209 85.411837 44.177746 81.407927 41.300436 77.074359 C 38.44553 72.740792 37.018077 67.971946 37.018077 62.767824 C 37.018077 56.504314 38.723979 51.325796 42.132583 47.229071 C 45.541187 43.10674 49.833148 40.014992 55.011666 37.953827 C 60.218988 35.892662 65.47752 34.862079 70.787261 34.862079 C 74.909592 34.862079 78.39821 35.271752 81.253116 36.091097 C 84.133626 36.884837 86.591662 37.848208 88.624022 38.984409 C 90.685187 40.120611 92.547918 41.099984 94.212212 41.91933 C 95.905313 42.735474 97.569607 43.145147 99.208298 43.145147 C 101.375082 43.145147 102.828139 42.658661 103.56747 41.679287 C 104.332406 40.703114 104.716474 39.022816 104.716474 36.644795 L 106.819247 36.644795 L 106.819247 74.974787 L 104.716474 74.974787 C 104.716474 67.706299 103.330628 61.353173 100.555737 55.909009 C 97.806449 50.439239 94.055385 46.185686 89.299342 43.145147 C 84.543299 40.107809 79.124739 38.587539 73.046862 38.587539 C 66.54651 38.587539 61.883283 40.133413 59.057183 43.225161 C 56.256686 46.316909 54.854838 50.240804 54.854838 54.996847 C 54.854838 60.309789 56.256686 64.99862 59.057183 69.069741 C 61.883283 73.112057 65.515927 76.783108 69.955114 80.086093 C 74.3943 83.389079 79.099134 86.61525 84.066415 89.758207 C 89.059299 92.87556 93.776935 96.194548 98.216122 99.708771 C 102.655309 103.222993 106.27515 107.146889 109.075646 111.480457 C 111.904948 115.814025 113.319599 120.899726 113.319599 126.740761 C 113.319599 132.261739 112.209002 137.296232 109.987808 141.841037 C 107.769815 146.385842 104.057157 150.044091 98.849834 152.818982 C 93.671317 155.56827 86.482843 156.941313 77.287613 156.941313 C 72.848427 156.941313 69.110164 156.560446 66.072826 155.792309 C 63.032287 155.052978 60.404621 154.166421 58.183428 153.135839 C 55.965435 152.105256 53.929874 151.221899 52.079946 150.482568 C 50.255623 149.714432 48.367288 149.333565 46.411742 149.333565 C 41.444461 149.333565 38.960821 151.221899 38.960821 154.998569 Z M 36.861249 154.998569 " stroke="#ffffff" stroke-width="16.641142" stroke-opacity="1" stroke-miterlimit="4"/><g fill="#000000" fill-opacity="1"><g transform="translate(114.600789, 238.150184)"><g><path d="M 9.90625 0 L 9.90625 -59.4375 L 12.484375 -59.4375 C 12.484375 -46.226562 14.394531 -35.429688 18.21875 -27.046875 C 22.050781 -18.660156 27.269531 -12.484375 33.875 -8.515625 C 40.488281 -4.554688 47.820312 -2.578125 55.875 -2.578125 C 60.894531 -2.578125 65.484375 -3.335938 69.640625 -4.859375 C 73.804688 -6.378906 77.144531 -8.890625 79.65625 -12.390625 C 82.164062 -15.890625 83.421875 -20.546875 83.421875 -26.359375 C 83.421875 -31.898438 81.671875 -36.984375 78.171875 -41.609375 C 74.671875 -46.234375 70.113281 -50.65625 64.5 -54.875 C 58.882812 -59.101562 52.972656 -63.296875 46.765625 -67.453125 C 40.554688 -71.617188 34.644531 -75.945312 29.03125 -80.4375 C 23.414062 -84.9375 18.859375 -89.828125 15.359375 -95.109375 C 11.859375 -100.390625 10.109375 -106.203125 10.109375 -112.546875 C 10.109375 -120.203125 12.1875 -126.539062 16.34375 -131.5625 C 20.507812 -136.582031 25.757812 -140.347656 32.09375 -142.859375 C 38.4375 -145.367188 44.84375 -146.625 51.3125 -146.625 C 56.332031 -146.625 60.59375 -146.128906 64.09375 -145.140625 C 67.59375 -144.148438 70.597656 -142.957031 73.109375 -141.5625 C 75.617188 -140.175781 77.894531 -138.988281 79.9375 -138 C 81.988281 -137.007812 84.007812 -136.515625 86 -136.515625 C 88.632812 -136.515625 90.414062 -137.109375 91.34375 -138.296875 C 92.269531 -139.484375 92.734375 -141.53125 92.734375 -144.4375 L 95.3125 -144.4375 L 95.3125 -97.6875 L 92.734375 -97.6875 C 92.734375 -106.53125 91.046875 -114.285156 87.671875 -120.953125 C 84.304688 -127.628906 79.71875 -132.816406 73.90625 -136.515625 C 68.09375 -140.210938 61.488281 -142.0625 54.09375 -142.0625 C 46.164062 -142.0625 40.484375 -140.175781 37.046875 -136.40625 C 33.617188 -132.644531 31.90625 -127.859375 31.90625 -122.046875 C 31.90625 -115.578125 33.617188 -109.863281 37.046875 -104.90625 C 40.484375 -99.957031 44.910156 -95.46875 50.328125 -91.4375 C 55.742188 -87.414062 61.488281 -83.488281 67.5625 -79.65625 C 73.644531 -75.820312 79.390625 -71.757812 84.796875 -67.46875 C 90.210938 -63.175781 94.640625 -58.382812 98.078125 -53.09375 C 101.515625 -47.8125 103.234375 -41.601562 103.234375 -34.46875 C 103.234375 -27.738281 101.878906 -21.597656 99.171875 -16.046875 C 96.460938 -10.503906 91.9375 -6.046875 85.59375 -2.671875 C 79.257812 0.691406 70.476562 2.375 59.25 2.375 C 53.832031 2.375 49.273438 1.910156 45.578125 0.984375 C 41.878906 0.0664062 38.675781 -1.015625 35.96875 -2.265625 C 33.257812 -3.523438 30.78125 -4.617188 28.53125 -5.546875 C 26.28125 -6.472656 23.96875 -6.9375 21.59375 -6.9375 C 15.519531 -6.9375 12.484375 -4.625 12.484375 0 Z M 9.90625 0 "/></g></g></g><g fill="#000000" fill-opacity="1"><g transform="translate(138.424524, 267.573617)"><g><path d="M 4.65625 -5.65625 C 2.207031 -6.21875 0.984375 -7.257812 0.984375 -8.78125 C 0.984375 -9.914062 1.378906 -10.765625 2.171875 -11.328125 C 2.953125 -11.878906 3.875 -12.15625 4.9375 -12.15625 C 7.269531 -12.15625 8.65625 -11.285156 9.09375 -9.546875 L 7.75 -9.546875 C 7.507812 -10.578125 6.570312 -11.09375 4.9375 -11.09375 C 3.78125 -11.09375 2.972656 -10.753906 2.515625 -10.078125 C 2.335938 -9.816406 2.25 -9.492188 2.25 -9.109375 C 2.25 -8.367188 2.648438 -7.796875 3.453125 -7.390625 C 3.828125 -7.191406 4.625 -6.9375 5.84375 -6.625 C 7.0625 -6.300781 7.945312 -5.945312 8.5 -5.5625 C 9.269531 -5.019531 9.65625 -4.265625 9.65625 -3.296875 C 9.65625 -2.085938 9.175781 -1.171875 8.21875 -0.546875 C 7.425781 -0.0234375 6.441406 0.234375 5.265625 0.234375 C 2.609375 0.234375 1.070312 -0.773438 0.65625 -2.796875 L 2.109375 -2.796875 C 2.335938 -1.523438 3.390625 -0.890625 5.265625 -0.890625 C 6.597656 -0.890625 7.53125 -1.257812 8.0625 -2 C 8.269531 -2.300781 8.375 -2.703125 8.375 -3.203125 C 8.375 -3.691406 8.179688 -4.097656 7.796875 -4.421875 C 7.242188 -4.867188 6.195312 -5.28125 4.65625 -5.65625 Z M 4.65625 -5.65625 "/></g></g></g><g fill="#000000" fill-opacity="1"><g transform="translate(153.61909, 267.573617)"><g><path d="M 8.4375 0 L 1.328125 0 L 1.328125 -11.96875 L 8.4375 -11.96875 L 8.4375 -10.828125 L 2.546875 -10.828125 L 2.546875 -6.5625 L 8.265625 -6.5625 L 8.265625 -5.40625 L 2.546875 -5.40625 L 2.546875 -1.140625 L 8.4375 -1.140625 Z M 8.4375 0 "/></g></g></g><g fill="#000000" fill-opacity="1"><g transform="translate(168.461638, 267.573617)"><g><path d="M 5.625 0.71875 L 0.171875 -11.96875 L 1.515625 -11.96875 L 5.625 -2.328125 L 9.703125 -11.96875 L 11.046875 -11.96875 Z M 5.625 0.71875 "/></g></g></g><g fill="#000000" fill-opacity="1"><g transform="translate(184.765064, 267.573617)"><g><path d="M 8.4375 0 L 1.328125 0 L 1.328125 -11.96875 L 8.4375 -11.96875 L 8.4375 -10.828125 L 2.546875 -10.828125 L 2.546875 -6.5625 L 8.265625 -6.5625 L 8.265625 -5.40625 L 2.546875 -5.40625 L 2.546875 -1.140625 L 8.4375 -1.140625 Z M 8.4375 0 "/></g></g></g><g fill="#000000" fill-opacity="1"><g transform="translate(199.607612, 267.573617)"><g><path d="M 2.546875 -8.828125 L 2.546875 0 L 1.328125 0 L 1.328125 -12.734375 L 8.046875 -3.171875 L 8.046875 -11.96875 L 9.28125 -11.96875 L 9.28125 0.734375 Z M 2.546875 -8.828125 "/></g></g></g><g fill="#000000" fill-opacity="1"><g transform="translate(215.295011, 267.573617)"><g><path d="M 10.625 -5.984375 C 10.625 -5.117188 10.460938 -4.320312 10.140625 -3.59375 C 9.816406 -2.851562 9.378906 -2.21875 8.828125 -1.6875 C 8.273438 -1.15625 7.625 -0.742188 6.875 -0.453125 C 6.113281 -0.148438 5.304688 0 4.453125 0 L 1.328125 0 L 1.328125 -11.96875 L 4.453125 -11.96875 C 5.304688 -11.96875 6.113281 -11.820312 6.875 -11.53125 C 7.625 -11.226562 8.273438 -10.8125 8.828125 -10.28125 C 9.378906 -9.75 9.816406 -9.125 10.140625 -8.40625 C 10.460938 -7.664062 10.625 -6.859375 10.625 -5.984375 Z M 9.421875 -5.984375 C 9.421875 -7.347656 8.941406 -8.488281 7.984375 -9.40625 C 7.035156 -10.289062 5.867188 -10.734375 4.484375 -10.734375 L 2.546875 -10.734375 L 2.546875 -1.234375 L 4.484375 -1.234375 C 5.867188 -1.234375 7.035156 -1.679688 7.984375 -2.578125 C 8.941406 -3.484375 9.421875 -4.617188 9.421875 -5.984375 Z M 9.421875 -5.984375 "/></g></g></g><g fill="#000000" fill-opacity="1"><g transform="translate(231.797183, 267.573617)"><g/></g></g></svg>